#!OML:ASF H:\Terrain\Patient Classification 1\Terrain2\Thursday\justin.ASF
:FULLY-SPECIFIED
:DEGREES
2685
root 19.1416 23.21 17.5299 -195.478 -18.7538 -177.469
lowerback 9.90141 2.07964 -5.32774
upperback 5.26933 1.89011 1.21264
thorax -0.279419 0.64453 4.06615
lowerneck -7.04663 -0.2208 -10.6221
upperneck 41.3699 -6.72486 6.50886
head 16.658 -5.55566 3.23442
rclavicle -2.35995e-014 -1.82882e-014
rhumerus -34.5601 -15.8125 -74.1821
rradius 28.4902
rwrist -10.5233
rhand -22.7093 10.3993
rfingers 7.12502
rthumb 3.72382 -19.5479
lclavicle -2.35995e-014 -1.82882e-014
lhumerus -39.4555 13.0723 69.9006
lradius 27.4037
lwrist 1.6438
lhand -18.541 21.9458
lfingers 7.12502
lthumb 7.74823 51.7838
rfemur -63.5545 -21.8704 18.9044
rtibia 87.9364
rfoot 9.27922 -3.04226
rtoes 13.5933
lfemur 17.5019 -6.74586 -21.2978
ltibia 33.2472
lfoot -19.9347 -13.3521
ltoes 5.53583
2686
root 19.1406 23.1984 17.4364 -195.877 -19.0367 -177.32
lowerback 9.84658 2.06247 -5.39608
upperback 5.31518 1.86337 1.23806
thorax -0.201134 0.625189 4.13588
lowerneck -7.24873 -0.0808363 -10.4762
upperneck 41.7153 -6.59832 6.48691
head 16.8772 -5.50966 3.21502
rclavicle -4.01607e-015 1.19271e-015
rhumerus -34.879 -15.8084 -73.9269
rradius 28.2876
rwrist -9.54959
rhand -22.0237 10.07
rfingers 7.12502
rthumb 4.38593 -19.8646
lclavicle -4.01607e-015 1.19271e-015
lhumerus -39.5882 13.1242 69.8005
lradius 27.3763
lwrist 2.01284
lhand -19.2862 20.8167
lfingers 7.12502
lthumb 7.0289 50.68
rfemur -63.1861 -21.8601 18.7654
rtibia 86.3088
rfoot 9.53169 -2.86138
rtoes 13.5474
lfemur 18.1745 -7.13366 -21.2458
ltibia 33.3363
lfoot -19.9253 -13.5182
ltoes 6.28231
2687
root 19.1432 23.2009 17.3347 -196.515 -18.9346 -176.467
lowerback 9.73624 2.4486 -4.29316
upperback 5.35329 2.4725 1.03573
thorax -0.120759 0.950416 3.24196
lowerneck -6.93375 -0.415264 -9.58247
upperneck 41.5902 -7.43387 6.69825
head 16.8136 -5.68678 3.01844
rclavicle 7.15904e-014 6.36111e-015
rhumerus -35.7393 -17.9204 -73.3506
rradius 27.87
rwrist -7.27938
rhand -21.2354 10.1123
rfingers 7.12502
rthumb 5.14705 -19.8052
lclavicle 7.15904e-014 6.36111e-015
lhumerus -39.0234 11.5096 69.7789
lradius 27.2829
lwrist 2.96237
lhand -20.2917 19.3247
lfingers 7.12502
lthumb 6.05821 49.2181
rfemur -62.5833 -21.5081 19.4853
rtibia 84.5142
rfoot 9.61684 -2.95673
rtoes 13.0558
lfemur 18.9074 -7.3721 -20.3059
ltibia 33.3558
lfoot -19.6292 -14.0528
ltoes 7.40017
2688
root 19.1488 23.1837 17.2342 -196.908 -18.9868 -176.122
lowerback 9.49127 2.54068 -4.15513
upperback 5.3026 2.62958 1.03261
thorax -0.0476513 1.03665 3.15169
lowerneck -6.19716 -0.494803 -9.66274
upperneck 41.3399 -7.7911 7.06478
head 16.562 -5.8358 3.15073
rclavicle 6.74408e-014 1.19271e-014
rhumerus -36.3664 -18.1825 -73.0598
rradius 27.7137
rwrist -6.3717
rhand -20.9072 9.64991
rfingers 7.12502
rthumb 5.46393 -20.2597
lclavicle 6.74408e-014 1.19271e-014
lhumerus -39.2027 11.1098 69.6512
lradius 27.3185
lwrist 3.47275
lhand -19.9598 17.4808
lfingers 7.12502
lthumb 6.37866 47.3647
rfemur -62.1958 -21.3535 19.7227
rtibia 82.7472
rfoot 9.85789 -2.9428
rtoes 13.0858
lfemur 19.5502 -7.48813 -19.8143
ltibia 33.2978
lfoot -19.2478 -14.6685
ltoes 9.10331
2689
root 19.152 23.1605 17.1322 -197.097 -19.3078 -176.207
lowerback 9.09971 2.0985 -5.10119
upperback 5.42115 1.99102 1.49839
thorax 0.303908 0.679607 4.24585
lowerneck -6.09248 -0.235818 -11.2393
upperneck 41.2712 -7.15325 7.2888
head 16.4926 -5.80456 3.63954
rclavicle -1.10822e-014 -1.11319e-014
rhumerus -35.7982 -16.0664 -73.0869
rradius 27.4764
rwrist -6.55195
rhand -20.7226 10.2001
rfingers 7.12502
rthumb 5.64216 -19.7048
lclavicle -1.10822e-014 -1.11319e-014
lhumerus -40.0947 13.2232 69.3703
lradius 27.8006
lwrist 2.4366
lhand -18.4656 18.8258
lfingers 7.12502
lthumb 7.82098 48.6612
rfemur -61.8733 -21.4105 19.3881
rtibia 80.9878
rfoot 10.3281 -2.76657
rtoes 14.4349
lfemur 20.1838 -7.87724 -20.006
ltibia 33.1911
lfoot -18.9905 -14.843
ltoes 10.0049
2690
root 19.1508 23.1423 17.0235 -197.316 -19.5354 -176.082
lowerback 8.818 2.39616 -4.87941
upperback 5.23459 2.4423 1.18273
thorax 0.234733 0.933057 3.75351
lowerneck -5.42891 -0.376342 -10.2839
upperneck 41.248 -7.74485 7.32557
head 16.3586 -5.93884 3.39651
rclavicle 5.60573e-014 -8.74653e-015
rhumerus -36.9381 -17.1356 -72.8614
rradius 27.4416
rwrist -6.24683
rhand -20.5379 10.838
rfingers 7.12502
rthumb 5.82055 -19.062
lclavicle 5.60573e-014 -8.74653e-015
lhumerus -40.1042 11.8239 69.199
lradius 28.0749
lwrist 2.49544
lhand -18.074 19.3998
lfingers 7.12502
lthumb 8.19892 49.2207
rfemur -61.3915 -21.2879 19.225
rtibia 79.1286
rfoot 10.8242 -2.50711
rtoes 15.7203
lfemur 20.891 -8.53593 -20.2157
ltibia 33.0468
lfoot -18.651 -14.6485
ltoes 10.9865
2691
root 19.1494 23.1124 16.9138 -197.596 -19.7226 -176.074
lowerback 8.4784 2.33202 -5.20963
upperback 5.28799 2.35719 1.27959
thorax 0.470836 0.876239 4.05925
lowerneck -5.50628 -0.0908366 -9.79521
upperneck 41.3838 -7.10309 6.6961
head 16.3046 -5.66568 3.12476
rclavicle -6.99225e-014 2.3059e-014
rhumerus -37.0416 -16.5089 -72.8247
rradius 27.2598
rwrist -6.23033
rhand -20.5926 10.7823
rfingers 7.12502
rthumb 5.76769 -19.1192
lclavicle -6.99225e-014 2.3059e-014
lhumerus -40.4863 12.2567 69.0708
lradius 28.3211
lwrist 2.49516
lhand -18.2068 19.5285
lfingers 7.12502
lthumb 8.07071 49.3544
rfemur -60.6505 -21.0328 18.891
rtibia 77.2008
rfoot 10.9809 -2.32217
rtoes 15.788
lfemur 21.7113 -9.01286 -20.4463
ltibia 32.8578
lfoot -18.4111 -14.653
ltoes 12.2909
2692
root 19.1512 23.0851 16.8071 -197.97 -19.8527 -175.923
lowerback 8.26448 2.35101 -5.14354
upperback 5.37511 2.39615 1.18382
thorax 0.680842 0.889102 3.92658
lowerneck -5.68498 -0.0401466 -9.50591
upperneck 41.5531 -7.07872 6.66857
head 16.4243 -5.61956 3.06054
rclavicle -5.16095e-014 -3.18055e-015
rhumerus -37.2173 -16.4018 -72.9686
rradius 27.2221
rwrist -6.32411
rhand -20.4907 10.0872
rfingers 7.12502
rthumb 5.86609 -19.8116
lclavicle -5.16095e-014 -3.18055e-015
lhumerus -40.5194 12.1655 68.8019
lradius 28.507
lwrist 2.63208
lhand -17.9291 19.6743
lfingers 7.12502
lthumb 8.3388 49.4897
rfemur -59.7218 -20.6915 18.671
rtibia 75.189
rfoot 10.736 -2.67293
rtoes 16.1825
lfemur 22.5375 -9.32938 -20.3536
ltibia 32.6629
lfoot -18.2615 -15.0281
ltoes 14.027
2693
root 19.1557 23.0748 16.7009 -198.375 -19.8337 -175.248
lowerback 8.15577 2.84908 -4.01776
upperback 5.19153 3.15307 0.676662
thorax 0.550857 1.31575 2.70492
lowerneck -5.35689 -0.469799 -8.28431
upperneck 41.7102 -8.39023 7.15378
head 16.5787 -5.96221 2.85231
rclavicle 6.48038e-014 -5.56597e-015
rhumerus -38.6902 -18.2487 -72.978
rradius 27.6284
rwrist -6.25407
rhand -20.0656 8.95387
rfingers 7.12502
rthumb 6.2765 -20.9331
lclavicle 6.48038e-014 -5.56597e-015
lhumerus -39.9323 9.8699 68.5387
lradius 28.6554
lwrist 3.07458
lhand -17.9416 20.078
lfingers 7.12502
lthumb 8.32666 49.8939
rfemur -58.866 -20.3399 19.1127
rtibia 73.0843
rfoot 10.662 -3.11059
rtoes 17.2153
lfemur 23.1862 -9.53889 -19.5395
ltibia 32.4861
lfoot -18.2387 -15.4287
ltoes 15.1658
2694
root 19.1595 23.0617 16.594 -198.68 -19.9719 -174.696
lowerback 7.73638 2.27368 -4.5053
upperback 5.1753 2.39392 1.43234
thorax 0.776381 0.916933 3.83834
lowerneck -5.34243 0.0806981 -9.61496
upperneck 41.8903 -7.23361 6.98107
head 16.569 -5.73986 3.19585
rclavicle -1.28216e-014 4.77083e-015
rhumerus -38.3191 -15.5152 -73.0713
rradius 27.6443
rwrist -6.59455
rhand -20.1806 9.26373
rfingers 7.12502
rthumb 6.16549 -20.6265
lclavicle -1.28216e-014 4.77083e-015
lhumerus -41.2889 12.0485 68.4092
lradius 29.2076
lwrist 2.91486
lhand -18.0573 20.5223
lfingers 7.12502
lthumb 8.21506 50.3425
rfemur -58.075 -20.1529 19.4141
rtibia 70.9983
rfoot 11.0036 -3.40795
rtoes 17.8762
lfemur 23.781 -9.777 -18.8759
ltibia 32.2627
lfoot -18.4783 -15.5069
ltoes 14.4221
